/* XPM */
static char *_7a86de6a3014148c926f506243a3f3conxKeHxAbUqtjUly[] = {
/* columns rows colors chars-per-pixel */
"64 64 150 2 ",
"   c #041117",
".  c #06151A",
"X  c #09161C",
"o  c #07181E",
"O  c #0C191E",
"+  c #111C1E",
"@  c #071A21",
"#  c #0D1C22",
"$  c #111E23",
"%  c #0E2026",
"&  c #0F2128",
"*  c #132226",
"=  c #192427",
"-  c #14242A",
";  c #19262B",
":  c #16282E",
">  c #1B2A2E",
",  c #192730",
"<  c #172931",
"1  c #1D2C32",
"2  c #1E3136",
"3  c #1F3138",
"4  c #202B2F",
"5  c #212E33",
"6  c #233136",
"7  c #293337",
"8  c #25343A",
"9  c #29363B",
"0  c #26383E",
"q  c #2B3A3E",
"w  c #303B3F",
"e  c #263A41",
"r  c #2C3C42",
"t  c #2D3F49",
"y  c #313E43",
"u  c #313F48",
"i  c #2E4145",
"p  c #2F4249",
"a  c #334246",
"s  c #384347",
"d  c #34444A",
"f  c #39464B",
"g  c #36494D",
"h  c #3A4A4E",
"j  c #344650",
"k  c #394750",
"l  c #374A50",
"z  c #3B4D53",
"x  c #3D4F59",
"c  c #3E5155",
"v  c #3E5259",
"b  c #3F585C",
"n  c #414C4E",
"m  c #414E53",
"M  c #425256",
"N  c #43545A",
"B  c #48565C",
"V  c #415A5E",
"C  c #40585C",
"Z  c #44595C",
"A  c #46585C",
"S  c #47595D",
"D  c #455A5D",
"F  c #45585F",
"G  c #46595F",
"H  c #455A5F",
"J  c #46595E",
"K  c #485A5E",
"L  c #4B5A5F",
"P  c #4A5A5E",
"I  c #445660",
"U  c #455960",
"Y  c #465A61",
"T  c #475A61",
"R  c #475B62",
"E  c #435C60",
"W  c #465A61",
"Q  c #485B62",
"!  c #4A5B62",
"~  c #495C60",
"^  c #4B5C63",
"/  c #4B5E64",
"(  c #4B5E65",
")  c #4B5F66",
"_  c #4C5D64",
"`  c #4D5E65",
"'  c #4C5F66",
"]  c #4B5C62",
"[  c #515F64",
"{  c #4C6166",
"}  c #4D6067",
"|  c #4D6267",
" . c #4E6167",
".. c #4F6269",
"X. c #4D646A",
"o. c #4E6269",
"O. c #526266",
"+. c #526468",
"@. c #50656A",
"#. c #51646B",
"$. c #53646B",
"%. c #54676B",
"&. c #52666D",
"*. c #53666D",
"=. c #53646B",
"-. c #58676C",
";. c #53686B",
":. c #56696D",
">. c #57686F",
",. c #55696D",
"<. c #5A6A6E",
"1. c #576A71",
"2. c #576C71",
"3. c #556971",
"4. c #586D70",
"5. c #586D72",
"6. c #5A6D73",
"7. c #5A6D73",
"8. c #587074",
"9. c #5C7077",
"0. c #5D7075",
"q. c #5C7379",
"w. c #5F7278",
"e. c #5C7478",
"r. c #5E7178",
"t. c #616E74",
"y. c #647275",
"u. c #60747B",
"i. c #61747B",
"p. c #62757B",
"a. c #61757C",
"s. c #62757C",
"d. c #63777E",
"f. c #64777E",
"g. c #63757B",
"h. c #65787F",
"j. c #657980",
"k. c #677A81",
"l. c #657C82",
"z. c #687D83",
"x. c #6C7F86",
"c. c #6C7E84",
"v. c #6D8086",
"b. c #6E8188",
"n. c #70848B",
"m. c #72878C",
"M. c #72838A",
"N. c #778B92",
"B. c #758C92",
"V. c #768D93",
/* pixels */
"d z M B ` >.i.x.f.b.i : N N L G G B N N M M v z v v F *.n.N.d t F M c c c z h z M ^ ;.5.2.2.2.8.e.b E C q.V.U & l v M M M F f g ",
"d f h z g l ` s.k.h.e 2 M N B B N N c c v v z z v v F U s.z.t t z l h g g g z c c c c G } $.{ G b c b b ..V./ - z F M x z z g g ",
"d d z M z l z G i.w.0 e h N B N M c c c z z z z M M G U i.9.t t l z c z h g z z z h g g z z g d g c C b N m.U & z ! z z l h d d ",
"f h d d l z z l v / 8 p h L N c c c c c z l z z v v F U s.*.r p c N N c z z h g g h h g g l z z z c b C N z.c # l G z z l g f d ",
"r d f h l l l l N ^ 2 a h L z c z z z c z l z z v z z F i.U 0 p N N c l g h z z z h g g z z c c g z v N F i.v - a M l z h d d d ",
"d a a d g g z ! >.^ 1 a M B g c h g h z z z z c v c v / k.U 0 p N c z l g z h g g g d d g g l g g c G v N 5.v - a c l h d d a a ",
"r r a h z h g c ` g 1 h L N h h h h g z z z z M v F M } s.F e d N c z z z g g d i d d g g h z c z M D M c %.z - a z h f a s a a ",
"y d d d d f l M $.g 8 h c c N z z h g h l l z M M G l v ..z e l N c l l g d d d d d d d d g l z c c c M M >.z : y h h h s f y a ",
"r d d d h d h B L h r f B M z m z z l M M z z M a d z *.1.M 8 z F z g l g d d a i d d i a d g g g g h c N $.h 1 r h h f d a a y ",
"q y a d h f h B [ r r z L N z z h f m z g F M i M F F ....l t z N v z l d d d d i i i i i d d d i g c h M >.z 1 a z h f d a a y ",
"r r y d h f h B B 5 9 y h B B M N f h z M v l M U z F N z t r c v v z g g h d i d i i i d d d d h h c c G %.h 1 y h d y a a a a ",
"i i a f h a f P h * 8 8 8 h M m m B M m F M c ! F F d p 3 : d l v c l d d z z z g d d d d d d g h h h c M ^ d 8 y h d a s s s a ",
"t t d d a y f P a O > 9 5 5 6 9 5 8 8 6 6 e l g t e e 1 # 1 d z v v c z z g g g h h g g d a d g g c c d q d e 6 a z h d d d s a ",
"i a d f a a h N = X * > ; - * * - - * - ; # # - 1 8 6 l p < p t p p p g c c c z g g g g d d d g M h d 0 2 8 : 1 t l h f h f f s ",
"g g h h f f f a = q q s d h f a h M a # - t i M ` U #.s.s.r e t v z d p p g h g g g g g g g g g d q 8 0 8 1 % 1 8 g f g f d d d ",
"l l h h f f y 6 = m m O.[ [ ] [ >.g.y.8 1 J F F z z z z ` < t e d v G c g g c N c c z h z z f a 2 8 q q 2 : @ : 1 e r e r q q q ",
"y r q 9 9 5 7 = 4 w h f s f h m F -.u.g 1 a h d z l z g d - - e 8 e p p z t t i d d g a t 8 ; ; 1 1 : - & - - @ : 1 i a y d q y ",
"; 1 - ; = 4 = + 7 w h n h f f M F ! #.t # - - 1 : : - - - o # - < & & < - 1 & : - - - @ $ # - 8 6 6 8 q g ! U z & % 1 1 5 8 5 6 ",
"- - # # O $ O > 7 s n f f f y 9 a l F 8 - r d h z z g z z F / F M U v z v d z z g z M z o 1 f m L L O.5.#...` s.9.8 # - - = = = ",
"L B m d a = X 6 w y a a a w q q y z J 8 6 B ] N L L G } ` 1.f.1.1.6.1.1.x.z F 1.*.v.M.x.q 8 r f M z h z N #.M U u.9.r X 5 r a n ",
"B B _ O.y.h = 9 4 7 w y y w y d d f B q r m z d g a g l d l / U z v N M / ..r N M ! 1.z...t g M d h h g a z t g z x.] # 7 h m M ",
"c M M _ y.-.> 5 9 y y w y a y q y d N 9 r z z z l a l j d d I #.l g l g p $.l g c d v 6.G 8 g d d a a d g z i d d M h 1 9 f n f ",
"F F c M <.<.7 q B h y w y q y s a h N 5 8 h h f g i p p t d l ..v t t l d d l g l F z >.v 0 t l r d d i i z z d d B m : q a y f ",
"i p z d L z = 9 q y y q 9 9 q y a s m 1 q h h d a t t p t j e U z a d i i l d g z d c 5.z 1 g d d a a d r r g h r g m 1 9 d f y ",
"e d d i N h - 7 s s y w q w y y f h 9 = e g g g p t t t p t d v g g a a d g g d g d c ,.g 1 d d d a r r r r a d M B f 5 q s f y ",
"t r q a B a = 9 a f f a q q a h f 7 5 > 9 l l a a p t t t p z U a d g g d g d d d g z / t 8 e i y r r r r r r a d z a > 9 a a y ",
"r t i d M r * 6 9 w a f a y q q 5 > $ - r g a a d d d d p p z F g f g g g h z l d z F F 1 6 0 g t r r r q q q q q f y 5 w a y y ",
"8 t a a h 8 * : > 5 6 6 6 1 ; = = * X ; e r z g j a a a i d c F z m c z z z c c F l F l - 0 8 e r r r r r q q y y f 9 1 w a y y ",
"e 0 t d z 6 * > ; > : = $ # # # . * : - 6 6 a l z l z v z z z l 8 q q q q r r e 6 1 t 2 $ 9 8 e q q q r r a a f f s 6 > q s y a ",
"r t a g m 1 O # = * O O $ 5 y h _ %.L * - 6 1 6 8 8 e t t e 6 1 : - - * * * * % - - : # $ 6 5 t r r r q q q r y y q > 5 y f a y ",
"e a d a h = O = = 6 y h L O.O.[ z _ f.` - - - & # & & # # % % % - - * * - : : : 1 # # - # 1 1 5 9 8 8 6 6 5 > > = = = 6 y f a y ",
"a a a g z - > N B P [ B z d a a d d z u.a # @ # 1 e e 8 8 1 : : * : q z _ >.5.>.#.U -.6.1 # : - - - - * - = * $ O X O 5 9 s f f ",
"d y f a q 1 y B h s y y y a s d f f a N 8 * < d 6.w.1.>.1.*.>.6.p 2 c } ^ L ^ N N c G 9.#.1 % - @ & # @ o # . # 1 1 $ # 1 y f h ",
"f a 8 : - 1 8 q f f f f f d s d a a d 5 - 6 e d g l z v U R 3.l.z 1 t z g i d a d i t c 1...} z v l g v z l 6 - f B h : $ 5 q r ",
"y r 1 * # : - * ; 6 r a d y 9 6 q 9 8 $ - t a g z d a r e e l 1.z 1 r z h d d a r r r p ! c N z x I x M #.x.%.- > r q * . X * ; ",
"# # X # X $ # # $ % $ % - 2 8 q > = $ > 6 d g g d t t e 0 e i } p : e l h d a r r y d g ! a a d e j d g l #._ 1 8 r r 9 6 1 * % ",
"e 0 r a l z M F z g e 1 - % @ o * # $ 6 e h g a a t a t t t r M g 6 a h d y r q q y d a N g a p d d d z g M F t M L L N ! ^ F v ",
"` ^ ^ z z g z z N N G ^ / ^ R ! 9 X 5 8 y d t t t e r 8 e t r l g 1 y h f a y a a d y r d a u d d p t d g F M 8 a a r r g z ^ 6.",
"a g g a t t d d g d d d g c ..f.m # 6 r u r 9 r 9 e 9 e r 9 9 y d 1 q f z z h f f r 9 r d f d k d d a a a g e 6 l g t t r e d ^ ",
"d t 8 r t g a i a d l l d p N 1.z $ ; y r t y 9 8 8 5 8 q q d B r - > 1 8 r r 6 1 1 1 6 1 5 ; , < 1 - < 6 t 6 1 t g g a g g g z ",
"y r 9 9 9 e e 9 9 0 e e t d g ! z > 5 8 y y 8 9 8 9 9 9 r q q a 8 % - 1 = * * # # # # # X * * # # & & - 1 1 : - 1 1 1 8 8 6 1 1 ",
"y y q 9 e r r r e 8 e y d t a _ m = 5 9 e e 9 8 8 9 9 9 9 9 q d 8 # : 0 r d i 0 r q z z g # # 1 t a a e 8 8 6 1 - # # % # - - @ ",
"y q q q q q r q 9 9 r r r q r m m = 6 y q q q 8 9 q q 9 7 9 r f : 2 h L D L ;.0.<.+.6.5.6.e 1 8 z ` $.#.%.-.%.+.J N G G M ! ` v ",
"y y q q 9 9 q q q y y 9 9 q r d f $ 5 q q q q 7 9 q q 9 9 9 q y : 8 d z s i d g h h L 9.-.t 6 d i g d a h m M M M M G ^ ! $.6.9.",
"r r 9 8 8 8 9 9 r q 9 q r r r r 6 O $ 4 q q q q 9 9 9 9 q q 9 5 * 5 q i q q q r q r g M 8 1 1 9 a r q q r r q r q q q q r r z #.",
"q 9 8 8 6 8 8 9 8 9 8 9 r y r 6 = + $ = y y q y r q r r q q 8 : * 9 a y 9 8 q i i r r 6 - t l t 0 q q a d r q y q q 8 q r 8 r G ",
"q q 9 9 9 9 9 9 9 r q q q q q > * + + * 6 6 5 6 6 5 6 6 6 6 6 - $ 9 r q q 8 9 9 r q q 8 6 y z g a i r r r q q a 9 q q q a a d M ",
"y y r y y r r q y q 6 q 8 : 1 = + X X . $ $ $ # # # # # @ & - # - r y r q 9 9 8 q q 6 1 5 a a r q q 9 9 r a a a r r q 9 r d f a ",
"9 5 5 9 5 5 5 1 > - $ X . X # # # : : : 6 6 8 t - o 1 6 1 3 1 & * 8 q a q 9 q 7 q 9 5 = = q s y r r r r y a a a a a q f a s f 9 ",
"$ - $ # # $ $ X # X X - 1 6 r l M G G N N c G 5.` 2 e ` #.#.#...* : 8 9 q q q q 5 5 = = = > y a y y r y a d f h f 8 9 r a f q 7 ",
"O * = = 1 X X X O 8 h M B N z z g h d d a r g ` -.i - e t a d l - $ > = > > : > 5 > = = > = 4 5 1 5 5 6 7 7 6 6 - = > = = = = 4 ",
"d z B >.t.d # # 1 z B a r y r 8 8 8 6 8 8 6 0 g $.#.< @ & : - - * X X X # $ O # * O = $ = = O X O X X X X O # $ * = $ $ = O O X ",
"z c z F 1.-.1 % 0 d d r q 9 6 6 6 6 5 6 8 8 8 q c _ 1 1 l N z v N z r r q 6 : - = # $ $   # = 5 9 9 6 5 : - * # . . . X X # 8 a ",
"1 6 8 r M 6.8 : 0 q q 0 0 8 6 8 6 8 9 9 8 8 q q h N 1 0 z c z g f h r z z M M M z z f m 8 X 5 q s f m M B M m h h y d 1 X q a h ",
"8 8 8 8 i F 1 1 6 q a 9 6 5 5 5 6 7 9 8 6 8 q r d M 8 2 r r i 8 9 8 6 8 8 8 8 6 1 q y ] ] - 5 9 9 9 9 q y y d d d B g.^ - 0 r r ",
"1 3 0 8 t z 6 - 6 9 q 7 1 5 6 5 9 6 6 7 7 8 q q r B 8 : a a r 0 8 6 q 6 8 8 8 8 8 1 5 a [ 1 1 q 9 7 6 6 7 8 8 8 6 a } >.1 6 r r ",
"8 6 e 8 e z 6 ; 5 r 9 6 5 5 6 5 5 6 7 9 9 8 8 8 8 M a 1 r d q 8 6 6 8 6 q 8 6 8 8 8 9 r m 6 1 9 9 7 7 6 5 8 6 8 q 8 c N 1 8 r g ",
"8 6 8 8 r z 8 - 5 q 9 6 5 5 6 5 6 6 6 7 6 6 7 7 8 h 8 - q a q 8 r 8 6 8 8 8 q 8 8 q r a f 1 1 q 7 5 5 5 5 7 8 8 q 9 M d - 0 i 0 ",
"9 6 8 9 r f 9 - 5 9 8 6 6 5 5 5 6 6 6 6 6 8 8 8 9 z 9 X # - 6 r r a r r 9 6 6 ; 6 5 5 9 9 = ; 6 5 4 5 6 6 6 5 5 8 8 l e - 8 p e ",
"8 8 8 9 8 d 9 - 5 8 8 8 6 5 5 1 5 5 6 6 8 8 8 9 6 y :   X # X X # 1 1 - 1 1 5 6 5 5 1 1 - $ 1 q 6 5 5 5 5 5 5 8 q q g 1 : 1 0 e ",
"6 8 8 8 8 a q - 1 8 8 8 8 6 5 1 5 1 6 8 8 8 8 8 q r 1 > q r 8 1 $   # X # X # # X # X # # # ; 5 6 > 5 5 5 6 5 8 1 a f # # # 1 r ",
"8 8 8 8 q d 8 - 1 8 8 8 8 6 6 5 6 5 6 8 8 6 6 8 8 9 1 1 8 q a h r X # 5 9 8 9 1 1 ; # X # O - 9 6 5 1 > 1 5 1 1 8 t 8 @ # # # 1 ",
"q 8 8 8 r i : - 1 0 0 8 8 8 8 6 6 6 6 8 8 6 6 8 6 1 = = 1 = : 5 h 6 O 5 7 q y 9 9 d d f m > $ 6 q 9 7 : - : 1 8 8 y y e 1 % @ - ",
"e 8 8 8 r 0 X - : 0 0 8 8 8 0 8 8 6 6 8 8 8 8 q 1 - $ 1 5 ; ; 1 6 h $ 1 5 5 5 5 5 1 : r [ 9 # ; 5 q f r 5 1 5 8 r 9 8 g l U e @ "
};
