/* XPM */
static char *_74208c956974882cd1759ed7bbb719ddSqB5jXivGs48CyD[] = {
/* columns rows colors chars-per-pixel */
"64 64 256 2 ",
"   c #3A241A",
".  c #3E3105",
"X  c #3B2725",
"o  c #3E302D",
"O  c #3A1D1D",
"+  c #481E0E",
"@  c #492609",
"#  c #5C2402",
"$  c #572909",
"%  c #4C320A",
"&  c #5A3308",
"*  c #4C2B14",
"=  c #44251B",
"-  c #442B1C",
";  c #4B2C1B",
":  c #492516",
">  c #5B2C14",
",  c #532D1B",
"<  c #5C2D1B",
"1  c #552716",
"2  c #4C321D",
"3  c #4A3417",
"4  c #5C3312",
"5  c #54331C",
"6  c #5C331B",
"7  c #563719",
"8  c #642C02",
"9  c #642C0B",
"0  c #692A06",
"q  c #762B05",
"w  c #6A330C",
"e  c #693507",
"r  c #773807",
"t  c #642C14",
"y  c #682B19",
"u  c #633414",
"i  c #6C3414",
"p  c #63341C",
"a  c #6B341A",
"s  c #643A1C",
"d  c #6A3B1B",
"f  c #693A14",
"g  c #743B1B",
"h  c #773817",
"j  c #752D12",
"k  c #442B23",
"l  c #4B2C23",
"z  c #4B2C2A",
"x  c #472726",
"c  c #542D24",
"v  c #5B2D23",
"b  c #562C2B",
"n  c #4C3224",
"m  c #4D332B",
"M  c #483629",
"N  c #543324",
"B  c #5B3423",
"V  c #5C3A24",
"C  c #53352B",
"Z  c #5B342B",
"A  c #543A2D",
"S  c #5B3B2C",
"D  c #533A25",
"F  c #4B3836",
"G  c #533532",
"H  c #5A3533",
"J  c #543B34",
"K  c #5B3C33",
"L  c #543C3B",
"P  c #5A3B3B",
"I  c #442B32",
"U  c #633523",
"Y  c #6B3522",
"T  c #633B24",
"R  c #6B3B24",
"E  c #633C2C",
"W  c #6B3C2C",
"Q  c #65352C",
"!  c #733B23",
"~  c #753A27",
"^  c #633C33",
"/  c #683C36",
"(  c #733D34",
")  c #622E23",
"_  c #6A1F02",
"`  c #5B421A",
"'  c #7A4408",
"]  c #67431A",
"[  c #7B431D",
"{  c #784617",
"}  c #734E10",
"|  c #5B412C",
" . c #5C4234",
".. c #54423B",
"X. c #5C433B",
"o. c #564537",
"O. c #4A4339",
"+. c #64422C",
"@. c #6D432B",
"#. c #6B4526",
"$. c #744423",
"%. c #7B4324",
"&. c #74432B",
"*. c #7B452B",
"=. c #7C4B2B",
"-. c #7A4A27",
";. c #7C532C",
":. c #634234",
">. c #6B4334",
",. c #63433B",
"<. c #6B443C",
"1. c #63493C",
"2. c #6C4A3C",
"3. c #6B4A34",
"4. c #734334",
"5. c #7B4C32",
"6. c #73443D",
"7. c #734B3C",
"8. c #7C4C3B",
"9. c #794636",
"0. c #79523B",
"q. c #645038",
"w. c #76612A",
"e. c #4B3A43",
"r. c #573D44",
"t. c #6C3F42",
"y. c #5A4744",
"u. c #514B4B",
"i. c #644342",
"p. c #644B43",
"a. c #6B4B44",
"s. c #6B4C4B",
"d. c #664747",
"f. c #744B43",
"g. c #7B4C43",
"h. c #734D4B",
"j. c #784948",
"k. c #6A5148",
"l. c #735345",
"z. c #7B5244",
"x. c #74534B",
"c. c #7B534B",
"v. c #79594B",
"b. c #694C51",
"n. c #774D52",
"m. c #6A5555",
"M. c #745352",
"N. c #7D5453",
"B. c #7D5A54",
"V. c #775A59",
"C. c #7B6158",
"Z. c #6D5E63",
"A. c #863907",
"S. c #853C18",
"D. c #973C0A",
"F. c #823B24",
"G. c #864607",
"H. c #995706",
"J. c #83431A",
"K. c #894717",
"L. c #964717",
"P. c #885418",
"I. c #975618",
"U. c #924D07",
"Y. c #A55211",
"T. c #9B6318",
"R. c #986607",
"E. c #A9671C",
"W. c #B87819",
"Q. c #B36E11",
"!. c #834323",
"~. c #8A4B24",
"^. c #824B2B",
"/. c #864828",
"(. c #964B28",
"). c #895428",
"_. c #965828",
"`. c #854B36",
"'. c #83513A",
"]. c #895637",
"[. c #975835",
"{. c #924A36",
"}. c #A85B27",
"|. c #A55836",
" X c #B05729",
".X c #9B6429",
"XX c #9A6636",
"oX c #916B39",
"OX c #A7672A",
"+X c #B66525",
"@X c #B57429",
"#X c #A86836",
"$X c #B56837",
"%X c #AB7538",
"&X c #BA7839",
"*X c #AD772D",
"=X c #C47918",
"-X c #C57B28",
";X c #C57937",
":X c #CC6F2E",
">X c #844D45",
",X c #835343",
"<X c #82534C",
"1X c #8B5B4C",
"2X c #8A5647",
"3X c #975948",
"4X c #835452",
"5X c #835B53",
"6X c #8A5B53",
"7X c #8A5C5B",
"8X c #865A59",
"9X c #955B57",
"0X c #954E49",
"qX c #A25C4C",
"wX c #86604C",
"eX c #996448",
"rX c #876358",
"tX c #986559",
"yX c #9F7A46",
"uX c #B87945",
"iX c #A86657",
"pX c #AC6D4A",
"aX c #955D62",
"sX c #886665",
"dX c #976864",
"fX c #997268",
"gX c #997574",
"hX c #A36866",
"jX c #B46C66",
"kX c #A5746A",
"lX c #B67469",
"zX c #A67675",
"xX c #B37475",
"cX c #C57A45",
"vX c #C27758",
"bX c #C57D76",
"nX c #CA7E64",
"mX c #BA8331",
"MX c #B18518",
"NX c #D39316",
"BX c #C98838",
"VX c #D18E2C",
"CX c #EA9737",
"ZX c #DDA62F",
"AX c #ECA937",
"SX c #B7847C",
"DX c #B98749",
"FX c #CF9149",
"GX c #E4954A",
"HX c #D9AA51",
"JX c #F1AE4D",
"KX c #C68076",
"LX c #FED054",
"PX c #C3788C",
"IX c #B08584",
"UX c #CC8B85",
/* pixels */
"PXhXkXtXfXB.; * + _.FXe % @ G.VXG.# $ S ..p.,.c.x.a.n.j.< > W tX9X~ i # @ @ r VX+X}.-.s 5XsXsXV./ >XtX,XW <.sXa.i.C P i.h.7XSXIX",
"hXhXhXkXfXC = @ & XXI.{ % % OXFXuX).&., ; l E ^ v.v.j.( W '.2XtX9X9.%.%.r ' FXFX}.~.].T , ^ 5X<.f.kXkXdX4X^ N.M.P p.K ,.d.h.zXzX",
"zX9XdXdX<.x c @ {.K.J.$ * 3 > u d &.8.8.R $ $ $ V +.^ ( `.3X9X9XtX! t { FXBX.X[ *.'.1X`.Y 9 h %.fXzXdXsX7X/ <.x.K A o.1.K 1.dXdX",
"rXN.7Xc.c c * -.#Xr K.{.4 6 ) 1 < E Z / '.-.[ w $ 1 U 4.2X2X0X9XtX&.a h W.H.[ 8.C.l.<.W a h }.[.tXsXsXsXh.Z B E 2.A D | 1.X.J M.",
"M o. .C n @ & HXGXG.A.$XL._ y Y % 7 ,.P <.&.#X}.K.%.( g.2X9XhXdXfX^ y F.L.D.'.x.p.o. .V @ 9 &X_.@.C.V.V.b : R @.R @.T +.| A L e.",
"O.M M l - % XXHX*XU.A.D.L.S.h ! ;.7 ,.b.L B (.L.K.h W <.6.<X7XN.h.h.a {.|.S.4.1...y.A n 5 w @XI.4  .J l : T =.].[.w r ;.] ` F F ",
"F X k = @ ] oX#.7 f A. Xj h ! `.[.9 ^ V.e.G h L.S.! S p.1.2.a.i.i./ R {.[.{.p E p...M l @ e BXBXe 1 , : < =.%.!.[.(.H.HXHX} ` C ",
"  = @ @ } oXT C J T L.D.t U p p h $ ^ P e.J ! ~./.`.K .. .>.S Z P S 5 R y ! R 6 A k   : $ { @XI.-.W <.6.R R ! %.!.K.U.W.HXHXoX5 ",
"8 8 8 T.JXT.N J S u ~.8 5 :.S E < U S X.J C @.5.4.+.J l : > 4 4 B B 6 6 5 B p R 5 : @ @ e _.).5.g.c.5Xf.>.2.7.8.g.8.=.^.-.).yX;.",
"G.OX@XHXT.r A X., R $.6 :.J J J N , ; 5 #.R E S N C C ; U &.).eX5.S V D A S 6 5.@.7 @ ).%X[ @.h.s.M.x.1.,.x.V.sXV.B.c.B.7.V #.] ",
"r K.OXP.u , C : 6 d > , A M ..F C 5 & ).XX{ T K   k l : a *.^.eXS = M M F C , R p & 8 .XFXe 5 J b.b.m.y.m y.m.b.r.r.G m C C X.y.",
"8 )._.w , c c T 6 6 c l C F L F k ; & XXmX8 5 G z = : t i S.h 5.2.  ; D x + @ > $ 8 _.I.G.{ * o.y.y.p...M J y.F X O       k e.u.",
"# %X[.$ # a R < v ^ H x l k   I z k @ ;.XX@ 2 n - 3 p 9 r _.(.%.@., $ # 9 f $.i h K.$Xr 8 $.5 2 ..y.J k D n ; = x x l ; - M I o ",
"r %X{ 8 A.$X^.B <.a.P z x x G L L x - s ).# N J 2 * u i (.K.%.5.T 6 i [.pXK.f i h (.#Xr 8 [ ] % n z l n 2.>.>.N Z / ^ H  .X.m X ",
"[ /._.I.:X:X{ 5 J F F F x l X.o...X - 7 .X0 : L C 5 a !.~.i U E N 6 h (.(.!.$.&.=.!.~.S.r FX.Xe T A ,.N.v.c.x.,.p.d.d.s.a.S N B ",
"p $.[ K.U.+X' @ n F F F k   k o...M - s uXA.1 c , $ 0 ~.h u V N B u K.L.F.3XtX,X,X'.].%.{ &XBXr s ^ ,.B.a.i.,.,.p.K B < 6 &.'.W ",
"+.7.5.$.[ r I.r : G L F l     M ..J 2 u #XG.0 0 u i OXcX{ 4 E B 6 a L.D.~ sXB.x.<.^ z.:.E { BX&X# Q ^ i...y...m 2 @ 0 A.L.$X[.Y ",
"v.v.5X,X&.i U.;X%.: C G C m     F J ; d ).G.$X}.~.~.}.OX_.$.p p 9 q  X X~ c.h.h./ K 1. .J 5 I.BXP.w < :.C - @ @ & _.;X+XL.S.~ 8.",
"7Xx.8XN.Q t q cXcXj 1 m C k   z J  .* ;.yXG.L.I.r h K._.#XJ.i j A.D.:X:X[.'.4.^ i.P ..F F N 8 E.ZXR.{ Y p 8 G.Q.VXBXXX^.8.rXrXrX",
"M.M.V.n.b < 8 K.L.S.6 l m z   O X z * #.oX9 8 XXuX[.!./._.h !.~.|. X+X&XuXeX9./ i.X.k.J F C 4 U.AXZX_.2X'.J.CXJX-XP.$.rXV.C.V.m.",
"m.m.s.P x C 5 6 T W >.N l C   X x O @ 6 T B 6 5.pX(.`.>X>X`.^.{.iXiX3X'.0.B c ,.,. .1.A z z > J.-X@X2XrXg.$.FX@Xw 8.<.:.X.X.L d.",
"e.L z = k m = D  .A +.7.E N k   x : $ d >.Z 6 ;.!.! 1X7X6X2X! `.6.Z : : k k l c S  .K A x b 1 [ #X~.tXx.K T } ' 7.H l n l l G z ",
"J H H t.n.j.N N B T 5 3.R 1 B : N , # w T * & P.[ R wXC.C.f.h ~.U V 6 V m J Z c x K y.X.x ; $ =.].z.l.P z = 7 #.2.<.2.2.,.H <./ ",
"c.f.t.aX7Xc.:.B &.=.+.l.3., 1 1 @ $ _.[.> s .X*X{ #.wXrXv., J.[.U 7.E B l N $ 1 N k X.X.b , > ^.B | S , : * T T 2.a.f.l.B.<.j.<X",
"g.Z <.8Xh.5X^ 6 %.].a.p.d.H < ^.).[ XX[.R ).FXJXI.f v.v.4 f !.!.<XN.v.+.5 $ e .X5.>.n C N 1 y `.&.T * $ # h /.t b G s.sXrX5X7X7X",
"z.^ X.V.B.x.1.U i i ^ d.r.H 1 !.!.8 & f &.! U.@XGXr 4 6 { _.%.~ f.M.<.7.U d FX.Xs +.| ; , B Y Y ,X1X5.$.g h F.~ b m P V.x.a.s.M.",
"A X.m.Z.V.b.b.S i r t U , 1 t a $ s #.+.<.g.#.r -X-Xr =.].`.`.< Z c  .S 1 a XXr 5 D 3.T : l J k z ^ >.7.>.E Q B A M k o.J y.r.F ",
"M O.u.u.y.X.K p _.#X~.t y Y &.Y U +.3.l.M.a.S f U.GX.X-.'.tX9.( v : 2 D 1 < g u A N s R c C X M P / / a.<.,.>.K  .X.V D n J F y.",
"y.O.u.u..., 9 J.' .XpXS.*.z.>.T N 1.X.p.M.a.:.s r FX_.w 1XdX6X9.U < 5 | c < @.6 - ; $.*., x k A J d.i.a.v.x.<.d.i.a.4.~ =.T D o.",
"% % 3 3 & e OXI.r r S.j ,XrXwX1.k G L y.p.1.1.T e _..X{ ,XfX6Xg.4.U +.V Z c p $ ; ; p < E l   2 S 2.a.k.M.x.x.M.M.a.( g [.].+.D ",
"R.R.H.R.W.GXJXG.8 K.j ! j.i.M.p.H z C m l A ..N e _.[.$.7.fX8X4Xj.<.K C Z < !.i 6 , C m k   : , * , :.a.s.b.k.k.p. .p 9 Y &.E 5 ",
"ZXLXJXVX=X-X+XU.H.&Xr > <.d.d.i.C H s.a.a.p.F :.i uX[.*.v.M.8XN.h.i.i.Z @ a /.w 1 S C n   - T @.d u 1 : z l = ; ^ E $.%.p v c : ",
"W.mX.X_.[.(.K.r E.FXI.0 E y.y.X.C C s.V.p.X.J Z f _.(.!.6.b.V.V.k.a.P ; i _.w 4 3 D C = ; B p /.cXK.%.W p p Y Y ~ ! /./.T ,.,.C ",
"} P.eX9X9X9XqX~.r U.BXG.4 ,.L X.m n / d.1.X.J Z -._.|.h / / a.k. .l x <.^.~.p 7 2 - = c B T & #XI.r `.8.*.8.>X4.`.'.g d V E B , ",
"D l.dX9X9X>X>X2X^.e AXW.8 / K K G b b Q 1. .J ^ `.3X3X~ 5 N c B * V a.rX3.p v Z m k m H S p )._.[ ! 2X6XtX5XM.d.,.f.z.z.:.4 K.+X",
"o k.sXdX9X>Xj.6X2Xe VXVXr > ^ ,.H b b / k. .S :.4XtX9X,X+.V 6 6 R 3.a.a.; , R , n   H K B d XXr &.0.rX8XsXb...X.H ^ B.rX7.4 _.;X",
"  o.C.gXfX<XN.4X{.S.I.I.I.w S X.C C H a.x.S B E N.aX4X4Xl.+.8.W E A L X.c p g w % 3 K B u ].).d s 7.dXsXM.G - 5 < '.tXdXrX:.1 > ",
"V D M.sXgXN.B.g.~ (.(.q A.J.U :.N N K ,.:.5 ] p x.sX7X5X:.: ) > : = m G ; p ^.XX' & , B -.).&.5.> 6 x.C.d.z 2 5 R 3X9X9XdXrXm k ",
"yX4 ,.V.sXV.rX@.h (.{.h q (.!.y B C K S < u _.g S x.x.l.; : c v Z ^ A Z ^ >.&.[ uXK.w ].oXe p T W , N X.m l E 9.2X0X0XaXdXsXd.o ",
"uXP.7.m.V.a.N > F.|.0X~ j S.{.g B S >.U 9 G.&XK.p B 3.B 1 E ^ ^ <.v.f.7.c.g.7.*.!.S.0 [ [ $.R 6 R U : = = c W >X6X9XaXdXtXB.V.F ",
"&X).1Xv.7.9.`.`.qX3X{.`.~ t ! ! E E s r G.Q.Y.$X~.d u $ u =.>.<.N.8X4X<Xg.,Xz.8.`.g h S.y W 0.5.&.s 5 , E 6.( >X4X6X4X7X5Xl...X ",
"HXP.0.v.eX2X^.3XiX9X0X3X>XY t ! U R %.K.GXVXY.(.[.=.a ^.!.i T 7.8XfXdX9X2X1X6X<X6X*.S.uXY / 7.rXwXR p 6 W 6.4Xc.c.B.8Xh.^  .k   ",
"BXP.` a.z.W 8.z.rXrX6X1X2X`.h /.[ [ h (.FXI.{.3X1XwX`.[.[.!.~ a 4.1XtXtXhXhXdXdXeX^.r uX&.2.a.B.sX8.i $.5 N A p.p.s.d.r.y.J - 3 ",
"VXmX` q.7.>.<.l.v.B.7X6X2X9.h J.T.G.r ~.K._.tXdXdX6X].%.^.%.!.^.u @.8.,Xg.4.7.eX[ e K.XX#.:.V.V.s.B.^.i p 6 5 ; : : = k 5 @ #.oX",
"NXJX} #.z.f.:.a.M.M.V.8X5XW y e MXNXE.G.).eX3XdXdX8X1X5.&.T 6 &.!.!.2XdXfX2XP.OXE.I._.;.3.n F m.m.a.z.R ~ j r r g $ u r r T.oX@ ",
"R.VXE.' R 7.v.p.b.d.b.s.d.N > 8 ZXLXmXG.].1X6X9XdX5X<.3.T +.V R a g '.2X,X].*XHX-XU.=.2.>.A m J  .:.6 $ h K.}.$X).=.[ I.VXGX_.$.",
"e T.JXH.e 5.>.J L y.r.L m ; # ' JXQ.P.eX6X8X4X7Xb.P Z z.0.4.W W Q ! }. X|.(.I.@XI.{ +. .K K , 1 @ @ & r _.0 h !.9.6.Q 8 G.BX[.'.",
"& I.JXVXOX-.> B J J l , @ & ' BX-XI.XXwXv.s.h.i.P H <XdXtX9.W Q R i Y. X|.|.$XFXP.f V N C U %.r f [ I.uX[.# g ! 6.f.W 9 G.T.$.8.",
"9 ).FXH.I.#X}.e 6 5 d _.H.H.NXVXI.eXwXa. .A Z H >.g.dXdX9X6.@.d h S.K.[.iXqX|.#XI.8 4 V U g uXE.K.uXcXK.j g %.y < U 0 q I.' 0./ ",
"# ).%XU.I.}.BXU.d &.P.GXJXAXAXQ.[.<X1.K n S f.<XtXg.9XaX6Xg.>.;.L.cX~.eXlXjX[.L.P.K.[ $.'.g OX@Xr _.I.K.i > ! R 1 > K.cXL.[.5XH ",
"e .X%X' G.+XCXY.a p G.E.@XJXBXG.3.S C 2.<.g.tXkXfXz.f.dX7X6.j.a I.GX!.iXxXxXtX^.G.*X#Xi 4.U -._.[ [.|.~.j y < E 3.=.L. Xh ].f.H ",
"8 FXDXP.L.;XGXL.g &.L.}.' .XXX$.z.1.f.6XdXdXzXfXdXrXN.n.c./ v 8 -X-Xh 3XhXxXkX=.r OX#Xh 4.Z @.].%.S.[.~.h Y , ^ S #.A.A.[ tXa.G ",
"' %XyX[.(.S.S.[.3X{.K.~.g -.^.*.c.8X9X7XzXIXgXV.b.b.b.s.a.E w G.VXH.^.tXdXzXkX'.w (.#X!.g.c N @.g h K.J.$.Q Q Q ^ R r r %.tXy.I ",
"e { ].*.F.F.`.lXqX{.(.(.*.&.a *.<Xf.6.dXgXV.p.p.X.p.d.X.E u r BXJXH.).1XhXSXtX$.# [.[.! 7.C C 3.*.{.#Xi s >./ v < p h r ].fXF e.",
"j g g d g ! 9XjXiX3X~ ].2Xa j h U ^ Q <.i.y.o.o. .7.@.! 0 q =XJXCX+X~.%.*.'.&.e U.FX).+.2.C l 3.0.5.eXf 5 V Z Q Y j L.r 8.8XF F ",
"q ~.{ { R 8.iXjXhXiX*.d *.h !.[.@.@.[ { d s ] ] @.&.*.F.L.;XVXQ.+X&XpX3X{.^.`.P.W.JX;.V a.a.C ^ z.4.=.d 7 V E 4.F.(.$XK.W M.I I ",
"q FXFXP.5.tXtXjXhXtX4.a h _.g a $.P.VXAXCX-X;XOX[.[.qX|.(.(.(.|.vXnXjXiXiXiXiX.XNXZX{ A s.s.K ,.f.<XR d f f d a F.[.$X(.2Xx.x I ",
"H.JXT.P.tXhXtXhX9XdXQ > q $X[ w i r W.AX=XW.:X$XpXlXpXpX|.S.`.3XbXbXUXbXiXiX`.e Q.ZX).E ,.G N B j.>X&.w P.8 r g 3X3X(.S.[ 1 n M ",
"CXAXG.].tXhXdXdXtX6XN $ r }.S.w J.K.I.I.~.eX3X^.Y s 4 i h j `.tXbXxXUXxXjX3XW & Q.ZXP.4./ K :., ( ~ ! G.ZXZXI.w z.l.8.^.).} % . ",
"=XW.K.%.9.j.4XfX6XQ + $ !.S.S.h h g [ ^.tXdX<X4Xz.3.).XX}.K.R 6.dXxXzXxXlX`.B & MXLXI.[ g.x.7.E 4.>Xy _.JXJX&Xw 3.a.4X~ P.HXyXw.",
"K.[.pXiX'.U >.^ c : + R ~ a h %.R 4.8.g.6.c.8X<Xg.'.[.$X+XA.> N z.fXtX7XtX/ C % MXLXQ.r @.<.Q E <.<X^.[.uXpX].R V 7.E > K.DX#X].",
"xXUXbXjXiX'.@.>.E v U 4.Q Q t p a.i.f.c.f.a.7X4Xj.8.%.K.Y.L.9 B N :.h.N.z.A k * T.W.BXG.s ^ W >.l.7.].].`.2X4.8.p > @ u ~.~.[.pX",
"IXSXKXlXjXiX].3X3XW B l H P = = d.b.x.f.h.<.j.7XN.f.g.~ L. XJ.> = X G i.A k k K ^.r uXXX5.z.2X2X7.0.7.z.i.N.<X8.g e [ ^.'.3XlXjX",
"SXxXlXjXjXqX^.a 9 p c l I z   X o r.d.a.2.l.6.7Xh.h.n.( q Y.pX! l I F L M o   K 6.a g /.eXtX9XtX7.3.+.1.i.V.4X5.J.uXXX%.1XhXlXbX"
};
