/* XPM */
static char *_6fdc78b4686412be6a38780fab321781nxa1DJotlOyssYS[] = {
/* columns rows colors chars-per-pixel */
"64 64 190 2 ",
"   c #191917",
".  c #1D1D1C",
"X  c #221D19",
"o  c #23211E",
"O  c #2B241D",
"+  c #30251F",
"@  c #211F20",
"#  c #242423",
"$  c #2A2623",
"%  c #2B2926",
"&  c #24262A",
"*  c #292729",
"=  c #27292D",
"-  c #2C2C2B",
";  c #332721",
":  c #332B25",
">  c #3A2E26",
",  c #322E2B",
"<  c #3A2F29",
"1  c #373026",
"2  c #3E3027",
"3  c #33312E",
"4  c #3B322C",
"5  c #232730",
"6  c #262A33",
"7  c #2C2E33",
"8  c #2B2E39",
"9  c #312F32",
"0  c #2D3136",
"q  c #2E323C",
"w  c #343333",
"e  c #3B3633",
"r  c #373833",
"t  c #3C3936",
"y  c #33353B",
"u  c #393739",
"i  c #35393D",
"p  c #3C3B3B",
"a  c #42352D",
"s  c #44392E",
"d  c #423732",
"f  c #433B34",
"g  c #4A3D34",
"h  c #433E3B",
"j  c #493F3A",
"k  c #4D4136",
"l  c #44413E",
"z  c #4B433C",
"x  c #4F483E",
"c  c #51453D",
"v  c #54483C",
"b  c #323641",
"n  c #353A42",
"m  c #3C3D42",
"M  c #3B3E49",
"N  c #413F42",
"B  c #3E4146",
"V  c #3E424B",
"C  c #434344",
"Z  c #4B4642",
"A  c #4C4946",
"S  c #44454A",
"D  c #494749",
"F  c #46494E",
"G  c #4B4B4C",
"H  c #514742",
"J  c #514943",
"K  c #534A43",
"L  c #544943",
"P  c #564943",
"I  c #554B42",
"U  c #514B45",
"Y  c #514B46",
"T  c #554A44",
"R  c #564B45",
"E  c #534C46",
"W  c #574C46",
"Q  c #574D44",
"!  c #544B44",
"~  c #594C44",
"^  c #584D47",
"/  c #594C46",
"(  c #5A4D47",
")  c #594F46",
"_  c #5C4F47",
"`  c #5A4D44",
"'  c #504C49",
"]  c #534E48",
"[  c #534E4A",
"{  c #574C48",
"}  c #554E48",
"|  c #574F49",
" . c #534E4A",
".. c #594E48",
"X. c #5B4F49",
"o. c #584D49",
"O. c #594F49",
"+. c #5A5047",
"@. c #5C5146",
"#. c #56514B",
"$. c #53524E",
"%. c #55514D",
"&. c #5B504A",
"*. c #5B524B",
"=. c #5F524A",
"-. c #5D524A",
";. c #5A514C",
":. c #59524C",
">. c #5D524C",
",. c #5E534D",
"<. c #5C534E",
"1. c #5E554E",
"2. c #5F564E",
"3. c #5C524D",
"4. c #434651",
"5. c #464A53",
"6. c #4B4D53",
"7. c #4B4E59",
"8. c #504F52",
"9. c #4D5156",
"0. c #4E525B",
"q. c #535254",
"w. c #5B5652",
"e. c #5F5450",
"r. c #5F5651",
"t. c #5B5552",
"y. c #5F5852",
"u. c #5E5955",
"i. c #5C5955",
"p. c #53555B",
"a. c #58575B",
"s. c #55585E",
"d. c #5A5A5D",
"f. c #61544E",
"g. c #63564E",
"h. c #61564E",
"j. c #64574F",
"k. c #61554D",
"l. c #62584F",
"z. c #64584F",
"x. c #615650",
"c. c #615652",
"v. c #605753",
"b. c #635852",
"n. c #625954",
"m. c #645B55",
"M. c #645A54",
"N. c #6A5D54",
"B. c #635E5B",
"V. c #635D5B",
"C. c #695E5A",
"Z. c #6C6056",
"A. c #65615D",
"S. c #6C615B",
"D. c #6B615C",
"F. c #71645B",
"G. c #525661",
"H. c #555A63",
"J. c #5B5D63",
"K. c #565B68",
"L. c #5B5E69",
"P. c #615F60",
"I. c #5D6066",
"U. c #5D626C",
"Y. c #5F6471",
"T. c #636263",
"R. c #6B6461",
"E. c #6C6965",
"W. c #61646D",
"Q. c #696768",
"!. c #666A6E",
"~. c #6B6A6B",
"^. c #716663",
"/. c #756A62",
"(. c #796F66",
"). c #716E69",
"_. c #7A6F69",
"`. c #7D726B",
"'. c #626671",
"]. c #656974",
"[. c #696D76",
"{. c #676D7A",
"}. c #696D79",
"|. c #6D727B",
" X c #7D7874",
".X c #81746E",
"XX c #867A73",
"oX c #897C74",
"OX c #6E7482",
"+X c #7B7E83",
/* pixels */
"f f f 1 g k 1 : z ....*.*.z k L < z x.e.,.e.;.d f k { z Z A { A t o 3 w.V.% $ t h t t e e 3 % 3 3 $ . 3 p 3 t t * - * @ - w r w ",
": 1 : 4 f *.j 4 I I R R 2.2.2.H 4 ..;.{ Z L M.f , Z L A Z U t e % 3 ] U Z e o % % , % $ $ o % 3 C % - 4 3 t r - t r - . - w - * ",
"O : f h.z f > d -...P ,.R ..R ) > I x.......R 4 { 4 $ $ 1 > 4 4 4 Z Z Z Z j , o w 3 $ X % 3 l e - o % p t , r w w w * . - u w w ",
"1 1 z l.b...k > z ) ..H R x.) k ; ) S.,.,.R k k : e { f , , #.] e Z l Z t $ , t C ] A , - p $.l p 3 o - t - w w w w * . - r w w ",
"> > I +.-.) h.) < d f.) h.,.h.H > -.-._ +.z ) g 1 *.n.,.E U U Z j e e , 3 e 3 h 3 h A , # t l p C p r o * r - r r r * . - r - * ",
"4 > c -.2.l.j.h...> a P I ) z f g v _ ) c Q 2.1 z M.;.z z ;.y.{ w.u.u.l e e h l h t h % - C l l p p C w # * - - - * # . - 3 * * ",
"1 d x.h.h./.S.M.k.c a g < z d g c g v g a g k 1 m.M.,.n.x.U ;.;.Z w.] Z , 3 Z Z  .A h , - D l D t.G C p - @ # @ % # % # % # # # ",
"f f M.,.h.N.N./.h.-.v a ) R P /.F.j.k @.F.k.I f H /.x.m.2.2.U t.%.{ A f $ j l h A %.l e w G Z C D D D t r w # - - 9 l p w * 3 r ",
"k < L ,.~ j.N.j._ ) z k..XN...F.F.Z.s @.F.N.(.,.4 ..*.{ n.;.A j l Z z , 3 A h Z A ] Z h - p C p l C D r w * r D r - t p p . r t ",
"H > f z I -.N.N._ c > N.N.h.,._ M.F.~ k N.Z.,.N...a 4 4 j { Z U h l z , h U Z ] w.] A l % 3 t h C l t t w @ t p w r w r t * % 3 ",
"z : > c -.k.j.M.k.s c N.N.N.C.M.N.@.a z m.h.*.2.m.m.f j , $ j j E A Z e Z A Z Z Z A  .C % $ r p p C D r # - p r w p t t - # # r ",
"{ d + z ) h.k.k.> > N.F.F.M.h.M.M.g c c I M.h.l.M.Q j L { t.e t 3 f t l l Z Z ] l A A Z w # t l l h t # o l D p t r 7 r * % % - ",
"z f : j ) ) I g ~ ~ c k f a f f ~ ~ Q k z +.L Q 2.{ f A.C.e.{ %.#.:.z t , , t D A l C h r # w l t t % e r % * # * . * w * * * * ",
"< 1 4 < f f ~ c _ v ~ k.Z./.XX`.oXXX2.k c Q 2.;.;.Z f B.;.e.B.u.#.] A l Z f t 3 t , t % * 3 % w , t r t r r t C D D G G D r # * ",
"O 4 z z z z _ v k g j.N.S.S._.`.`.(./.H g *.H z 4 1 e ;.A u.R.w.%.#.%.{ n.V.u.] t , , $ 3 p u r r r t , , l p t D D D D D p * % ",
"j H R m.h.Z.k.k ~ @.a j.M.N.S.S.S.) H j f g j L 2.Q e U A { u.] A %.:.{ A w.u.A.A.A , p D l G  .$.p 3 p r % t C p t C p - - * # ",
"R h.2.l.*.,.M.f +.N.l.z L I c k f f j 2.z d S.S.S.^.u.j h { w.] w.w.%.%.%.] t.w.T. .u D q.q.8.A D D 3 t D C w - - - * # * - r * ",
"-.Z.D.S.2.Q c > Q h.m.b.) f g R R 2.M.C.H < n.B.m.;.S.m.e e ] ] { ] ;.w.A ] a.A a.e p 8.P.P.p.D C p * t D D p t - - w w t t t - ",
",.b.b.2.2.*.z f z -.2...H Q n.x.C.S.C.n.U 4 C.R.S.R.n.S.A.e o Z A %.%.' C Z A A w 3 A q.q.q.6.6.D t * t p p t - r t p C C p p w ",
"Q ..;.;.b.*.j g x.b.2.*.j z e.m.^.^.D.C.M.f M.S.B.S.B.e.u.V.Z $ e z Z A A h t t - D A q.q. .G 6.D r r D C N m - w p D D D C C p ",
"U { ;.Q ..H f H e.Q Z ;.j j n.^.D.C.C.C.R.j ;.R.S.| ] w.e.u.%.h l h h l p t p w t G D G 8.8.G G t - t D p t p * 7 C D D C C C m ",
"Z H H Z H z g ;.b.2.U U f z B.V.M.e.;.v.S.H H R.E.e.%.w.e.u.;.j t A  .] | w.d.a.r w Z D D C D D C y D G C p p - w S S C p m C C ",
"f j z Z U j f Q e.;.{ { f e u.B.v.e.e.V.R.;.t n.S.V.w.w.A.A.%.e l a. .C Z D A t.C * w N S D D C t r D D C t p w 7 C m m p m C S ",
"e f j z z d f 2.2.{ H L j d ;.E ;.e.e.v.e.{ , B.w.w.;.%.i.w.Z 3 A A Z A G G G Z D t # u m C C C r t D D C p p w 7 m m C m m p m ",
"O $ 4 e 4 g g Q L E #.L , Z ;.{ n.e.n.e.{ | e t A w.A t.w.C , l G G A G D G D G D G u * - r u u t t D D C D p * p m m C N S m i ",
"e 4 : : 4 z f t l f g 4 f z #.{ e.u.t.{ { { 3 , , h %.w.%.p Z C q.8.G G D D S 6.G G q.C u - 7 y S C t w r r w w m C C G m m i i ",
"$ z z k k L L Q k s g t z g k Z | z f j t e e Z , h t h p t l r 8.q.G G C p C S q.S C w S G G S D D S S m w y m w w u m 7 7 - = ",
"X Z Z z z z z x b.k f z #.{ g f e f Z | U %.| Z A A C A G q.D r r t p p r u C C p D 9 & p.6.C G D C 6.q.y w C F B m w - w m m p ",
", U j j z Z z k Z 4 e { { n.e.e.e m. X).V.V.E.).%.C T.d.B.T.T.q.C r w u r r m p u 7 - p 6.S 6.S G S F G 0 u S F 9.6.C 7 6.J.p.6.",
"$ j f j l l Z E ;.4 e A U e.e.Z l B.).A.R.A.u.R.] h d.t.a.B.B.T.T.m C q.p.d.J.J.J.J.p w 6.S S G G 6.6.S y p B S S S S i s.J.6.G ",
"$ h h Z Z Z A A l : f A Z A %.] h u.).m.S.E.B.T.Z A a.q.J.T.q.T.T.m 6.p.a.s.s.s.a.T.q.7 S D 6.q.6.q.G S 7 p C G S S C u S p.q.q.",
"$ e t j j Z z l l , h ] A Z Z Z e t D.).R.A.V.V.p l T.d.T.d.d.T.6.p s.a.8.p.p.q.s.p.a.7 C G G G 9.F S G 0 C G C m m m 7 w s.s.q.",
"$ % 3 h h j Z z Z 3 l ] t l Z , r h l l A C A.A.G r T.d.d.T.d.T.C q.p.s.a.p.s.p.J.p.s.u i m S 6.S F G 9.u S G m C m = 7 p p y p ",
", , , , , 3 t h ] j l ] Z t 4 t i.~.i.C p r l E.D 3 T.T.d.d.T.D w T.s.J.J.p.6.J.T.s.6.p i m m y m C S 9.S S 6.C u y u p.T.q.p - ",
"$ 3 h l t 3 3 e , , 3 e 4 h %.V.i.q.d.u.r p p t - p ~.~.~.Q.p.- N q.q.s.6.F 6.q.J.J.i 7 B p.p.S i m m y y y m y n p.J.p.F 9.S y ",
"e h Z z t e e z %.] % t l ).V.%.q.i.] e r w. .G G t u C D q.t C 6.G 8.6.6.G q.q.p.S 0 G s.p.s.9.B S p.J.p.i y p.|.s.F 9.9.S = 0 ",
"3 t Z ' ' l , , t C l e A.] ] ] t.i.B.p C T.Q.d.t.p u C w r * C p m s.6.F 6.6.p.S i V 6.5.H.[.J.p.y y V 7.F n U.7.5.7.6.s.p.0 m ",
", 3 h Z A l , , , h t h %.Z Z %.$.d.$.r i.B.d.T.q.G t S d.T.s.q.D w m 6.p.p.m 7 i i m B 6.0.p.J.0.m V m V 5.V L.7.7.p.9.0.S 0 6.",
"% , t p C h w p t t w h A Z t. .q.8.9 t T.B.8.J.d.S w G J.q.6.q.T.p.m w p m m J.J.].0.n V 0.7.H.H.V S S V n M 0.5.7.p.9.S 6 n s.",
", % , w h C e h t p , h a.A C C A C * q.T.d.q.q.d.r u J.p.p.p.p.q.q.p.C B S T.p.H.H.7.7.y S 0.H.0.5.0.5.S n 0.H.0.7.S 5.B & 7.H.",
"p , o w t t t t h t - r C C h N p - r d.a.q.6.d.6.# G P.J.s.s.6.6.p.G D B 6.6.H.H.W.0.G.S b 4.G.5.p.4.0.S q n 7.V 5.M y 8 y p.9.",
"w w % % w w p p w * r C r r p * - w p A G p.p.p.p - 6.T.J.p.p.s.q.D 6.C m F 0.H.H.W.H.0.G.M n 5.0.7.L.4.8 7.G.V n b 7 0 b y V V ",
"3 t w $ , 3 t w * p  .q.N t C C * u C N u u u w * D s.p.q.q.a.p.G S m i F i 6.p.U.H.H.7.0.0.4.M 4.5.n 8 H.'.p.0.5.7.4.6 b 4.V 0 ",
"t e , 3 t % # o w D C h D N p C * C p.q.q.G D u t G 8.6.q.p.p.J.6.r i !.+Xi n H.p.U.H.0.0.0.V 0.5.y b 7.H.0.H.p.5.5.4.6 V G.7.7.",
"$ , $ $ t G h % C C C C D D D C - D G m D q.d.C u S q.6.q.s.G m 7 i W.!.J.F y n V 4.M V V V V 0.}.5.5.H.p.G.G.p.G.7.5.8 5.7.m F ",
"X $ 3 h 3 - # , p p N C p N D C * D 9.D G S D w G 7 * - w t u m B 6.J.p.p.p.m b 7.V M b n 7.U.0.4.n M L.H.0.p.0.p.7.5.6 5.0.S S ",
"# # t G A C 3 # t p t t p C C r # C G q.G C D m w m G p w u q.J.m s.p.9.0.m m 0.L.|.{.V V U.|.{.W.0.b 4.G.7.7.5.7.5.n & 5.7.5.5.",
"% # t p p h l t # 3 p p t C D t * D D C C C D u * G d.q.q.G s.G F F B i m B 5.0.5.0.Y.7.b H.Y.U.U.L.H.b M G.7.5.p.0.V 6 5.S S m ",
"# # h t h C p C p   w u u p w - - p p l p C G 7 S d.6.F 6.q.s.s.J.I.W.p.F S 0.H.p.p.G.V M U.U.'.].L.U.G.8 M 5.4.4.n q i n S i i ",
"* $ h p C G C D p r # $ $ - - , w w r w w t p - q.q.s.p.9.p.p.J.p.p.T.p.y V H.H.W.W.L.4.S '.U.'.OX{.Y.K.V b 8 q n 8 y y y y y - ",
"% * l l l Z D Z t p - # w w w G D p r C D D p w C T.p.q.J.q.p.q.J.p.H.S 6 5.H.p.U.W.J.5.5.].'.].'.{.}.0.0.4.y V S S J.s.S 0 S F ",
"- * r p t p l C r w w r  .p r G G D - l q.G q.G 7 G 6.G s.p.S S S F F y n p.0.H.L.W.L.0.V H.H.H.K.U.'.7.7.M 5.U.7.V 7.s.6.0 B F ",
"r # # w r t p p t 3 . h C r u r C D w r C D q.D C 7 7 u m F 6.S B 6.F y F s.9.I.U.W.W.G.b V 0.0.H.H.G.p.V 5 7.G.5.V m 7.5.y y V ",
"w # . , r t p p w $ * C p t D p C t w w C D C C q.G u p = & m m 6.F 6.m 7.p.0.H.H.H.U.H.b b 0.G.H.H.L.4.q V H.7.4.0.5.5.n 7 7 S ",
"- * . - w r r r # . p C C p m p C * * - p D p G S C y m S 6.u p i i B B 5.0.9.0.0.p.H.G.M 8 4.0.0.0.0.q 6 p.H.7.4.5.V V y y 7 n ",
"w *   * w r 3 * - 3 * - * # * # - w r w w t p p S N w q.p.q.S 6.F 9.F m 0 i B 0.0.0.7.7.V 8 V p.7.9.0 5.S b q 8 8 5 7 n i n 7 7 ",
"# . # o % # * * r - - r r D G G d.q.r - w u m C m p 0 q.S 6.s.q.5.6.F S S m n m V n n n y y n n b B S 4.m V 5.7.H.H.H.U.J.y 7 7 ",
". # * * % - 3 w * - r p t C G G G G D w w C u w 7 # 7 F m 6.p.p.6.6.6.9.J.I.H.0.m 0 b 6 b 4.5.V V 9.V y m 5.7.5.0.p.0.p.0.5.y 6 ",
"# - w t w t 3 # 3 * # r p p m C m u p * # - 7 y m N = p S S 6.F B 6.6.6.6.9.H.U.].7.q 5.7.7.G.p.H.F n B V 0 V 7.V 5.7.4.y 0 = = ",
"r t r r 3 t r * w p w - * - w * * * * u w * C 6.D 8.S 7 y S F C F 9.p.6.6.9.p.s.].0.y 0.G.G.H.0.7.6.i V H.V b n m 8 6 & 7 y n 0 ",
"w t C p r w - . - t r t - # * 7 7 p t C u # C C S m 9.6.= - S C C F F S S 6.7.5.0.y 5.0.'.W.H.0.5.V 6 n V F 7.n 5 q n n m m S 0 ",
"t t p w r - * # * t w w * w p w t m m t w # N G C 8.C G 6.- # i m S F F m B F 5.y 0 5.0.H.p.7.0.V n 0 V F B n n n S m F V B m 0 ",
"- w w w t w % * r w w w * * w m S C S C m 7 p G G C F C S 6.y & 0 y m B m i i 0 & F 5.7.5.0.p.0.9.i i F M V V 6 0 n m 6.F V m m ",
"- r - w 3 % o - r - - w # * r C C m m p C 7 p F S m p S m S C 0 0 0 y i 0 0 q 0 n V V 5.7.5.V 5.b 6 B 5.V b m 6 q V 6.V B B m B "
};
