/* XPM */
static char *_0a8048ed3b34664fdd9bcaef1fb96938eYG6nNXO2wFGG7z[] = {
/* columns rows colors chars-per-pixel */
"64 64 203 2 ",
"   c #030304",
".  c #0B0403",
"X  c #040807",
"o  c #0B0A05",
"O  c #03060B",
"+  c #030A0D",
"@  c #0C0C0C",
"#  c #120D05",
"$  c #120E0B",
"%  c #0C100F",
"&  c #111107",
"*  c #14120D",
"=  c #1B140D",
"-  c #1B180C",
";  c #000610",
":  c #050B13",
">  c #0B0D13",
",  c #060E19",
"<  c #0A0F19",
"1  c #130E11",
"2  c #071016",
"3  c #0C1216",
"4  c #06111B",
"5  c #0B131C",
"6  c #0F191B",
"7  c #131314",
"8  c #1A1613",
"9  c #171813",
"0  c #1B1A14",
"q  c #12151C",
"w  c #151A1C",
"e  c #1B1B1C",
"r  c #21190E",
"t  c #221D14",
"y  c #291E14",
"u  c #221D1B",
"i  c #1D201C",
"p  c #24211C",
"a  c #2C241C",
"s  c #2F2C1D",
"d  c #32261C",
"f  c #342A1D",
"g  c #3C2E1E",
"h  c #3B301E",
"j  c #051024",
"k  c #0D1522",
"l  c #0E1923",
"z  c #0E1A2A",
"x  c #121623",
"c  c #131B24",
"v  c #1A1D24",
"b  c #141D2A",
"n  c #1A1E2A",
"m  c #161E32",
"M  c #211F22",
"N  c #172125",
"B  c #1C2225",
"V  c #16212C",
"C  c #1B232C",
"Z  c #1D282E",
"A  c #162331",
"S  c #1D2532",
"D  c #1E2934",
"F  c #1E2638",
"G  c #1E2A39",
"H  c #222424",
"J  c #2A2723",
"K  c #252925",
"L  c #2C2A24",
"P  c #22252C",
"I  c #29272D",
"U  c #24292D",
"Y  c #2B2B2C",
"T  c #302720",
"R  c #352C23",
"E  c #3A2E22",
"W  c #322E2A",
"Q  c #382F2A",
"!  c #2D312B",
"~  c #343025",
"^  c #3B3124",
"/  c #35312B",
"(  c #3B342B",
")  c #3C382E",
"_  c #212633",
"`  c #232A34",
"'  c #2B2E33",
"]  c #232739",
"[  c #242C3B",
"{  c #292E3B",
"}  c #263037",
"|  c #2C3134",
" . c #26313C",
".. c #2B333C",
"X. c #2F393B",
"o. c #333433",
"O. c #3C3631",
"+. c #353836",
"@. c #3E3B36",
"#. c #31353B",
"$. c #34393D",
"%. c #3A3B3C",
"&. c #423424",
"*. c #41372D",
"=. c #42392A",
"-. c #4C3C2B",
";. c #403730",
":. c #443D35",
">. c #483F30",
",. c #443D38",
"<. c #464135",
"1. c #4D4233",
"2. c #42413D",
"3. c #4B453B",
"4. c #4F493D",
"5. c #504434",
"6. c #514B3D",
"7. c #252E41",
"8. c #292E41",
"9. c #263242",
"0. c #2B3443",
"q. c #2E3944",
"w. c #263548",
"e. c #2D3649",
"r. c #2E3A4A",
"t. c #313643",
"y. c #323A45",
"u. c #3A3D44",
"i. c #30374A",
"p. c #333C4B",
"a. c #393E4B",
"s. c #2E3851",
"d. c #343E51",
"f. c #383F51",
"g. c #2F4145",
"h. c #364145",
"j. c #3B4245",
"k. c #36414D",
"l. c #3B454E",
"z. c #3A424C",
"x. c #3E484E",
"c. c #334053",
"v. c #354251",
"b. c #354255",
"n. c #354256",
"m. c #374556",
"M. c #354252",
"N. c #3A4251",
"B. c #3A4553",
"V. c #3D4653",
"C. c #3A4656",
"Z. c #3E4556",
"A. c #3B4453",
"S. c #3E4852",
"D. c #3E4B56",
"F. c #3E4A55",
"G. c #3C465A",
"H. c #3D495A",
"J. c #3D4A59",
"K. c #434644",
"L. c #4B4641",
"P. c #4D4B44",
"I. c #42464C",
"U. c #44494D",
"Y. c #4E4F4A",
"T. c #524A42",
"R. c #504F4A",
"E. c #4F514E",
"W. c #5E5047",
"Q. c #57534C",
"!. c #5B564D",
"~. c #404654",
"^. c #404855",
"/. c #424B54",
"(. c #484D53",
"). c #424C58",
"_. c #474E5A",
"`. c #474F5C",
"'. c #434D5B",
"]. c #4B4F5A",
"[. c #495056",
"{. c #45515B",
"}. c #4B535C",
"|. c #5C5954",
" X c #585850",
".X c #52565B",
"XX c #464F60",
"oX c #494E61",
"OX c #455161",
"+X c #4C5660",
"@X c #4A5562",
"#X c #4D5A64",
"$X c #4E5C6A",
"%X c #525B66",
"&X c #535D6B",
"*X c #525E70",
"=X c #4E6165",
"-X c #576065",
";X c #54616C",
":X c #5A646C",
">X c #596572",
",X c #5B6A74",
"<X c #5D7074",
/* pixels */
"A.Z.p.p.d.G.m.m.f.i.p.q.t._.`.).H.H.a.y.u.Y L.= L Y #...[ [ _ _ S ..{ q > q > 5 [ p.p.m.M.e.7.0.' H L a d a R 0 ' t.9.e.C.S k [ ",
"t.N.A.M.r.c.G.d.f.i.N...i.V.N.M.H.k.p.a.v o.|.0 p | X.0.[ [ [ ` S C ..n > > q _ X.p.M.p.p.f.e.[ U e p T d R a @ ' y.r.G M.C.5 c ",
"n N.A.p.M.w.e.H.C.p.N.[ H.M.w.p.r.p.V.n > u.Y 7 + w b [  .D _ _ ` S { x : C U ` X.q.k.M.p.0.t.` v * W a a ( y 8 #.y.0.p.k.S.y.3 ",
"c ` l.A.C.p.w.[ 0.N.p.[ '.M.d.M.p.l._.` : 5 v B B c , 4 C ` D Z S ` _ 5 : : > C ..S.l.p.0.{ y.C X 0 ~ R R d a . I u.y.p.y.y./.h.",
"C D S.k.r.k.p.r.0.^.0.A Z.M.M.M.l.y.u.c + ` _.+XF.F.r.k 4 Z C C _ _ 4 : C ` C : S y.p.l.l.q.n > H * a ~ R y = 8 1 U y.t._ c U N ",
"4 5  .y.k.y...y.z.z.n n ^.N.p.p.u.u.w   w }.&X@X;X#X}.` 5 v q w n 5 3 { y.{ t.` : , c S _ Z > C $.P * J a y ^ ,.W > v c 4 c 5 q ",
"r.l l  ...q.t.' v e @ q U.].^.(.' 8 J K B -X@X*X$Xc...U w w @ o @ w B ' _ _ t.[ t.y...c 4 c P #.P | Y 0 # ( <.<.,.o.> ` y.t...q.",
"H.A.l 4 5 c v 7 9 W o.* K %.Y v L 3.!. XH j.;XOXw.[ ..| e o .   @ H H B ' ..t.q._ p.z.k.y...z.[ [ [ ` 3 . 0 a ~ 2.Y.' I.p.Z.N.p.",
"9.M.F.[ C c > u ;.;.:.a = p W T.W.1.=.3.p $._.r.p.0.$.B p a a a u 0 e e v P C b x [ q.q.0. ._ D n b b B J i * 0 ! +.| X.l.k.p.e.",
"0.9.0.[ ` #.Y u :.R *.1.>.>.*.1.-.-.-.6.Y $.y.i.k.V.U ! 3.( R R W p %.e q _ [ [ n [ C D [ 0.S l A [ ....j.| i K.j.$.C D F.p.9.0.",
"8.[ 0...[ | ' p :.R &.1.1.=.=.1.-.-.5.4.J #.z.y.k.V.P 2.) ^ d a a ~ 8 P I...^.N.i.V...5 5 b  . .w.S ` X.} C [.}./._._.q.S [ 0. .",
"{ { [ [ ..' P e 8 # r ^ =.=.) >.&.&.&.3.K q b C C ' ' Y @.R d R ~ p e u.u.` { i.y.q._ V y.k.N. .D .. .` ` q.).Z.).N.i.Z.r.D k  .",
"_ [ ` [ ....C 3 7 * o # * & 9 a =.g f J > q [ ..y.` P > M J J J L 0 %.u.` 0.` p.i.y.Z t.z.k.0.0...Z ....b OXr.d.G.f.0.p.p.l.Z N ",
"P _ [ ` S [ C + 3 | o.K H i w o f ^ ~ e P ~.^.k.V.l.I.U.M 9 0 9 9 H $...[ 9.G D  .q.C [ | t.y.r.` _ ` k D OXe.w.d.e.G.N.0.....c ",
"` v c c V S c 5 l.}.[./.x.x.y.3 - ^ 0 v +XZ.9.k.l.V.y.u.z.U H H H C y.l.w.e.r.[  .X.n > c n t.q._ n C q.#Xe.w.r.9.C.XXN.N.y.t.Z ",
"w 3 5 5 c 5 l k.%X_.p.k... .l.X.o t 7 u.+X[ M.p.l.z.y.a.a.y.y.j.U.x.` r.r.e.9.0.[ P O + 5 5 b C P t.V.^.r.r.'.r.M.N.p.t.{ y.l.C ",
": 3 5 4 + 2 ..#Xk...0.i.i.q. .l.7 * 3 t.q.w.p.N.l.a.a.~.l.p.0.p.q.}.{.G w.q.[ V c C C p._.^.V , Z z.z.t.y.y.@X@Xp.p.i.0.0.0.0.k ",
"p.y.y.y.6 + x.S.0.[ e.p.p.i. .t.e @ > c C S 0.p.p.p.a.....q.r.r.A.p.@X@XA D 9.p.k.z.y.q.[ l.k.V : c C C c b 0.p.`.G.'.Z.a.N.x S ",
"q.y...y.t.c V.[ [ [ 0.0.i.p.q.t.v 3 B c V b z V n ..q...y.p.M.p.i.C.H.&XM.'.'.).l.y.[ [ 0. .i.y.b 4 k ` [ S D b b &X&X).&X` 0._.",
"0.y.t.0.N.[ p.y.i.r.0.0.w.r.0.q.B U ^.^.).C.M.Z.i.b _ i...i.M.H.N.p.C.C.p.'.r.0.0.[ { 0.0.0.0.` ` l.+X#X_.}.$X[ p.G [ A b D &Xy.",
"i.i.f.e.7.[ 0.i.i.i.e.0.e.0. ...P #.V.l.k.p.f.M.`.`.A C ` C r.G r.A.).).9.[ f.r.0.[ 0.0.0.i.D [ A.{.%X).).@X>XD ).p.l S b #X^.r.",
"e.0.e.f.r.9.7.0.0.0.0.e.p.e.w.q.` y.y.p.i.p.f.d.e.i.N.c 0.{.^.p.C S a.Z.D [ 0.0.[ 7.[ 0.p.[ b Z.{.0.S [ F.@X,Xk.C.;Xb l p.#XN.k.",
"0.p.0.i.i.D b 0.p.p.e.e.p.i.0.0._ y.t.y.e.e.e.w.p.r.F.0.V.}.p.[._.{ c ` 5 k { 0.0.[ 0.e.[ n ] t.p.w.9. .9.k.@X'.p.{.p.l @XA.q.r.",
"0.0.q...q.C , [ i.p.0.0.e.p.i.0.D q.y.0.0.0.w.r.w.w.p.k.C ....[ y.}.' q | _ c { [ 0.[ [ [ , n ` r.9.p.p.w.M.r.A.k.0.p.w.>XA.0.q.",
"t...q.....5 4 X.0.0.e.e.i.p.p.0.A [ 0.0.0.0.w.w.p.p.0.V.S _ [ ' H | %.H +.I.v n X.q.0.D c 5 5 n w.w.7.0.q.p.p.l.l.` k l.H.A.C.r.",
"..} _ v C B 4 [ V.p.e.0.[ [ [ n [ [ 8.[ 7.7.7.7.[ r.0.y...v #.B +.! J 0 p +.u.q _ S S V _ c w c w.e.7.[ _ [ ..a.a.5 y.V.r.F.N.M.",
"5 6 3 3 N X.3 N ..[ [ 0.0.0.0.S [ 0.0.0.0.0.7.[ [ [ [ X.| q H 2.R.P.P.Q.P./ %.$.c b ..k._.c q v A [ [ q.y.p.y.y.U 5 a.z.y.p...S ",
": + + 3 N } 5 4 [ [ { 0.t.{ b k w.r.p.p.i.0.[ [ 9.w.[ _ ' e K Q.<.) 1.=.T.!.O.$.| l.l. .t.c w q k n ` ..#.' H e @ w $.u.y.S C 5 ",
": : 5 c N ` N : C [ { { t.P < c w.r.M.N.a.y.r.e.r.r. ._ | e @.:.*.1.&.^ ^ *.L.u ' q.[  .q.c 3 3 c n C v e > o o @ @ K I v v q , ",
"5 c _ Z P ' ..5 c _ { ` ` q : ` p.d.M.Z.^.N.i.0.0.[ ..[ e u @.R =.h &.=.&.^ ,.Y C y.r.0.[ c 3 > 5 3 7 @ @ @ $ * u 8 * $ > 7 : > ",
"[ [ [ b C _ ..` < 5 c x q : > t.H.m.M.k.p.q.[ D [ ` ..n > W ( f g &.=.&.&.E O.W | y.N.A.[ 5 O @ O O O   $ * = - a ( p e 9 @ 7 v ",
"[ D _ c _ [ { t.n : : : : O q u.l.p...[ ` D [ ..0.[ b 5 o.L ~ R &.&.=.g &.^ Q Y B C V A D ` n q 7 7 9 $ = t a ^ ^ R / W 0 e Y P ",
"[ C C [ ' ` ..| ..k _ ` v B @ H u.$.#.t.{ ......` b S t.H 0 ~ f h -.&.&.^ R / J q #.p.{.^.p. .c 5 q @ * p R f &.f f R J 9 7 U | ",
"4 c < c X...[ ..C l l.}.(.P H @ o H ' ' [ [ C C C ..[ ] ' K ~ s ^ E E R W J K * e I.I.l.0.[ G n c 3 e K J Q E d E E T a @ X q w ",
"C ` n O n ` Z c 4 ..{.l.}.$.%.Y Y B 5 4 4 b [ y.y.A 8.l.u.%.0 p a t = 8 $ 9 @ O + ' ` _ ..i.i.q.[ U | o.o.O.( *.R a p 0 @ O 3 2 ",
"t.t.V.C 4 c 4 ; c k.q. .j.U.' I.$.U l ` l.k.}  .` D ).[ n U H L $ o 7 7 ' B 5 > : _ ` S [ [ ` [ ..| | w H p 8 0 $ * @ o   3 ..l.",
"[ ` y.p.5 : , l [ q.0.p.t.[.P C N ` {.>X{.D.S.q.N ).r.S ` ..w i ' | z.z.l.z.t...: V ` _ { ` C ` ..| [ > + 3 7 9 e P | ....q.y...",
"[ ....p.y.b l.F.q.r.M.p.y.V.y.c S.+X&X#X{.;X,X,X{.k.r.A [ t...q l._./.{.C ..y.t.k c [ ` { ..{ ` { [ c : c ` | #.| | { ..t.p.y.S ",
" .q.q.q._.q.@XH.M.c.c.r.p.r.V.p.#X#X$X$XJ.{.#X=XS. . .w.0._ 5 z.l.p.r.0.D D r.q.C c ..X.{ ..{ { ..Z : C l.l.t.......[ _ Z S [ ..",
"[ 0.0.y.0.r.p.M.M.J.m.c.w.M.l. .+X;X#X@X@XJ.q.g.h. . .0.i.[ c C [ 0. . .[ 4 S A.r.k ` q.t...` C c 4 5 p.X.S ......[ D ` [ ` [ [ ",
"....0.p.y.p.M.C.M.w.H.J.M.r.0.b y.#XOXH.p.w.` Z } D p.N.0.[ y.p.C C ..` 0.l l V. ., k c c k c , O O _ .._ Z D S c ` [ D ` ` ` { ",
"[ ....y.[ y.k.H.m.r.w.r.A.p.p.b c y.e.0.7.[ ` Z Z _ [ D b l ` y.p.[ [ ` S Z b ..`  .q.C [ ` n c c 3 C | [ ..[ D C C [ _ S { { C ",
"S [ ..q.0.p.k.M.p.M.r.w.d.e.i.S 4 [ 0.0.0.[ [ [ [ 4 b A 8.{ b S X.h.[ _ Z Z C ..y...[ ..).q.C S C v C ..` ..[ ` ` C S C C ` C q ",
"[ [ [ ` [ 0.y.r.M.r.r.[ 0.p.q.C : _ 0.8.8.A S Z B c a.%X@XA.q._ C [ | z.{.y._ q.q...y.p.V.r.` C P U Z [ ` _ S C D _ C _ ` C q q ",
"_ Z S n [ [ y.i.p.0.p.G [ y...c 5 C 0.8.8.S _ _ n Z }.a._ 0.0.l.D  .^.y.z.;X#X#X#X&X&X_.l.p.p.` Z c 5 Z  .C C C n ` C _ C < > > ",
"c 4 4 , ` [ q. .w.i.M.i.[ [ ` > > c _ ] ] S _ _ c Z [ _ [ 0.0...V.k.` D b D ..A.{.{.S.k.q.C b l l _ ..c b ` { C n ` ` _ n C X.' ",
".._ c 4 C { q.0.r.r.r.i.q.` c + 3 q n ] [ [ C P Z 5 c C 0.0.[  .` q.l C  .S D S  ...S c 5 5 b D ....y.q.` C C ` [ { [ n 5 Z ..` ",
"` ..` c c P [ q... .0.[ S c : N 3 5 c ` { { C C n 5 C [ [ ` ..D D l D V ` ` [ ..Z c l D ..q.p...X.D ` [ ` ..C c C C Z 5 c _ b S ",
"_ _ ` C P e w w w C n C 4 : 4 c N 6 5 C ` P P v q < c { ..` ` } q.5 Z P P H P v 4 5 } 0.r.r.0.8.[ [ 0.[ [ ` ` [ N 5 : > C _ ` S ",
"] [ ` U P o.e @ w 3 5 : c c _ _ c Z N 4 3 3 q > q n c b y.y.D V [ Z q P 7 1 1 O O ' q. .9.r.p.0.[ [ [ [ [ [ ` _ ' B 2 2 _ _ ` [ ",
"_ _ ` ` U B e U P q c ` { { ..z.q.V ` $.K Y H @ B h.X.l ..p.r.0.D b : > $ o $ e H y.` D 9.[ 0...` [ [ 0.8.[ [ ` C ..c 4 _ ` [ ] ",
"_ [ C n P w | | ' ..t.y.[ { S _ l.C Z U Y H o.E.K U }.z.` b D i.0.y.n @ 0 a W u e $.` ` [ [ q...X.q.t.t.0.0.q.q...y.C c [ ` [ _ ",
"_ 0.S _ Z ' #...y.p.^.y.q...[ c A p.5 U Y %.P.P.K.P ' C i.y.m b d.D c O $ J T ,.+.y...[ ` q...` q...[ D D D A V b [ Z C ` ` 8.S ",
"C [ { Z C { ..q.y.p.a.a.q.[ [ C D i.c 3 7 K.@.o.U.q U ..[ [ F m j n p.+./ ( J W Y ' t...` ....X.c C ` [ 0.0.0.[ k b c b [ ` { _ ",
"Z C B : c ..[ S ..N.i.p.D [ ..S S ).Z q o.e o.+.B h.-X;X`.`.&X*X9.M.y.j.2.8 W W K ' u.[ [ ..C c D ..p.p.i.r.0.[ p.S , c q.` _ [ ",
"} c : 2 c C n C b l k C b 5 ......D n z..XK.w w $.:X%XF.M.w.M.H.M.d.q.X.%.%.p K Y ' $.[ ` c c ..y.k.k.0.w.r.w.[ [ 0._ c ...._ _ ",
"N 2 5 X.y.p.y.0.#Xp.b 5 , , c _ N C y.C n .X#.Z %X{.A.M.p.M.r.r.c.r.p.y...$.$.e v #.' c c D p.9.[ [ 7.[ [ 0.i.t.0...[ 5 Z C U U ",
"+ N t.[ C [ r.D F.:X{. .` c 4 5 l  ...Z P Z ....).r.w.e.p.p.0.0.w.q.r.i.0...| $.q C U } p.0.9.9.[ D D [ [ ` 0.l.y.l._ O 2 3 2 6 ",
"w h.k.C ` [ 9.w.q.{.+X/.^.X...q.h.q.[  .y.S [ [ A.w.w.9.i.r.q.q.r.9.9.p.p.0...l...' u.y...D 7.7.w.] n S ` ` [ y.y._ 5 : v N 6 3 ",
"/.x.X. .[ w.0.r.r. .y.V.^.q.l._.y.` [  ...V.0.[ 7.9.0.G [ 0.y.q.0.D S r.r.e.0.q.y.c Z X... .9.G F [ [ [ [ [ ..X.Z : k 5 ..j.j.h.",
"y...[ 0.9.r.r.r.r.........` X.q.[ D ` ..S ` _ S [ 0.7.D A [ ` ` C S b 9.w.7.r.0.y.c c S ....[ [ [ ` ` U | X.U v : n ..5 C t.q.h.",
"q.r.p.r.r.7.9.9.0...y.q.C ` i.{ [ q.p.X.C : < _ p.q.` S b C n C n ` c S i.9.w.r.q.k , , C ......t.| ' P w 7 3 + ` z._.` c .. . .",
"N.w.f.A.r.e.A.r.p. .y.z.C ` p.0.[ [ ` Z | U.P w #.[ S C C n n _ ` ..S c 0.q.9.9.S b [ _ c 5 c n v 3 q e i K ! K j.u.y.y.b S p.p.",
"C.Z.p.p.s.M.d.C.k.y. .q.S D S S n b b y.#.I.P q ' ' X.[ { _ _ _ [ { { 4 C ..9.S k p.oXp.p.t.U N w w K ! K ! ! H | $...l.0.k w.Z."
};
